<svg width="746" height="842" viewBox="0 0 746 842" fill="none" xmlns="http://www.w3.org/2000/svg">
<path d="M691.137 0C697.494 0 702.118 6.07065 702.118 12.4277V12.4277C702.118 32.6991 714.304 49.9479 731.32 56.3615C739.072 59.2833 746 65.7489 746 74.0332V261.524C746 269.809 739.284 276.524 731 276.524H689.325C681.041 276.524 674.325 283.24 674.325 291.524V510.085C674.325 518.369 681.041 525.085 689.325 525.085H731C739.284 525.085 746 531.801 746 540.085V780.395C746 788.679 739.072 795.144 731.32 798.066C718.639 802.846 708.64 813.644 704.369 827.225C701.884 835.128 695.402 842 687.118 842H58.8828C50.5986 842 44.1172 835.128 41.6318 827.225C37.3603 813.644 27.3614 802.846 14.6798 798.066C6.92784 795.144 0 788.679 0 780.395V540.085C0 531.801 6.71573 525.085 15 525.085H56.6748C64.9591 525.085 71.6748 518.369 71.6748 510.085V291.524C71.6748 283.24 64.9591 276.524 56.6748 276.524H15C6.71573 276.524 0 269.809 0 261.524V74.0332C0 65.7489 6.92784 59.2833 14.6798 56.3616C31.6964 49.948 43.8828 32.6992 43.8828 12.4277V12.4277C43.8828 6.07059 48.5063 0 54.8635 0H691.137Z" fill="#170101"/>
</svg>
